<svg xmlns="http://www.w3.org/2000/svg" width="20.19" height="17" viewBox="0 0 20.19 17"><path d="M121.907,157.37a.227.227,0,0,1-.227-.227v-1.759h-7.734a.227.227,0,1,1,0-.455h7.962a.227.227,0,0,1,.227.227v1.438l2.429-2.429-2.429-2.429V153.2a.227.227,0,0,1-.227.227h-3a.227.227,0,1,1,0-.455h2.769v-1.786a.227.227,0,0,1,.388-.161L125.046,154a.227.227,0,0,1,0,.322l-2.978,2.978A.227.227,0,0,1,121.907,157.37Z" transform="translate(-104.922 -140.37)" fill="#600dff"/><path d="M41.225,34.583a7.515,7.515,0,0,0-7.507,7.507,7.436,7.436,0,0,0,.755,3.285.228.228,0,1,0,.409-.2,7.053,7.053,0,1,1,6.343,3.966H38.1a.227.227,0,1,0,0,.455h3.128a7.507,7.507,0,0,0,0-15.013Z" transform="translate(-32.202 -34.583)" fill="#0d285a"/><path d="M65.863,61.647a5.1,5.1,0,0,1-5.1,5.1H57.64a.227.227,0,0,0,0,.455h3.128a5.55,5.55,0,1,0-4.448-2.229.227.227,0,0,0,.364-.272,5.1,5.1,0,1,1,9.179-3.048Z" transform="translate(-51.745 -54.14)" fill="#0d285a"/><path d="M58.081,194.584H57.056a.227.227,0,1,0,0,.455h1.024a.227.227,0,1,0,0-.455Z" transform="translate(-53.21 -180.026)" fill="#0d285a"/><path d="M35.563,194.584H34.538a.227.227,0,1,0,0,.455h1.024a.227.227,0,1,0,0-.455Z" transform="translate(-32.741 -180.026)" fill="#0d285a"/><path d="M17.825,194.584h-.546a.227.227,0,1,0,0,.455h.546a.227.227,0,1,0,0-.455Z" transform="translate(-17.052 -180.026)" fill="#0d285a"/><path d="M58.081,173.084H57.056a.227.227,0,1,0,0,.455h1.024a.227.227,0,1,0,0-.455Z" transform="translate(-53.21 -160.482)" fill="#0d285a"/><path d="M35.563,173.084H34.538a.227.227,0,1,0,0,.455h1.024a.227.227,0,1,0,0-.455Z" transform="translate(-32.741 -160.482)" fill="#0d285a"/><path d="M17.825,173.084h-.546a.227.227,0,1,0,0,.455h.546a.227.227,0,1,0,0-.455Z" transform="translate(-17.052 -160.482)" fill="#0d285a"/><path d="M88.165,91.72a2.821,2.821,0,1,1,2.778-3.311.227.227,0,0,1-.448.079,2.366,2.366,0,1,0,0,.82.227.227,0,0,1,.448.078A2.814,2.814,0,0,1,88.165,91.72Z" transform="translate(-79.131 -81.393)" fill="#ebe7f2"/><path d="M104.662,106.576a1.167,1.167,0,1,1,.949-1.845h2.594a.677.677,0,0,1,0,1.353h-2.592a1.165,1.165,0,0,1-.951.491Zm0-1.878a.712.712,0,1,0,.625,1.05.227.227,0,0,1,.2-.119h2.718a.222.222,0,0,0,0-.443h-2.72a.227.227,0,0,1-.2-.118.708.708,0,0,0-.624-.37Z" transform="translate(-95.628 -97.903)" fill="#600dff"/></svg>