<svg xmlns="http://www.w3.org/2000/svg" width="18.652" height="22.335" viewBox="0 0 18.652 22.335"><g transform="translate(0)"><path d="M135.636,184.859a1.432,1.432,0,0,0,1.4-1.4V180.2h.933a.882.882,0,0,0,.933-.933v-9.325H127.708v9.325a.882.882,0,0,0,.933.933h.934v3.265a1.4,1.4,0,1,0,2.8,0V180.2h1.867v3.265A1.432,1.432,0,0,0,135.636,184.859Z" transform="translate(-123.979 -162.524)" fill="#a6d864"/><path d="M407.09,179.262a1.432,1.432,0,0,0,1.4-1.4v-6.53a1.4,1.4,0,0,0-2.8,0v6.53A1.432,1.432,0,0,0,407.09,179.262Z" transform="translate(-389.836 -162.524)" fill="#a6d864"/><path d="M43.614,179.262a1.432,1.432,0,0,0,1.4-1.4v-6.53a1.4,1.4,0,0,0-2.8,0v6.53A1.432,1.432,0,0,0,43.614,179.262Z" transform="translate(-42.216 -162.524)" fill="#a6d864"/><path d="M137.781.141a.447.447,0,0,0-.651,0l-1.252,1.248-.058.058a5.529,5.529,0,0,0-2.5-.559h-.027a5.528,5.528,0,0,0-2.5.559l-.058-.058L129.48.141a.447.447,0,0,0-.651,0,.448.448,0,0,0,0,.651L130.04,2a5.046,5.046,0,0,0-1.052.944,5.481,5.481,0,0,0-1.271,3.241c0,.013,0,.025,0,.038q-.006.126-.006.253H138.9q0-.127-.006-.253c0-.013,0-.025,0-.038a5.479,5.479,0,0,0-1.271-3.241A5.043,5.043,0,0,0,136.57,2L137.781.792A.448.448,0,0,0,137.781.141Zm-6.809,4.708a.7.7,0,1,1,.7-.7A.7.7,0,0,1,130.972,4.849Zm4.666,0a.7.7,0,1,1,.7-.7A.7.7,0,0,1,135.639,4.849Z" transform="translate(-123.98 0)" fill="#a6d864"/></g></svg>