<svg xmlns="http://www.w3.org/2000/svg" width="19.077" height="22.335" viewBox="0 0 19.077 22.335"><g transform="translate(0)"><g transform="translate(9.169)"><path d="M252.078,0a5.241,5.241,0,0,0-3.393,1.837,4.552,4.552,0,0,0-1.111,3.537A4.423,4.423,0,0,0,251,3.625,4.914,4.914,0,0,0,252.078,0Z" transform="translate(-247.522)"/></g><g transform="translate(0 5.228)"><path d="M55.767,122.106A5.654,5.654,0,0,0,51.5,119.84c-2,0-2.85.959-4.242.959-1.435,0-2.525-.956-4.258-.956a5.793,5.793,0,0,0-4.662,2.818c-1.615,2.5-1.339,7.213,1.279,11.223.937,1.435,2.187,3.049,3.823,3.063,1.456.014,1.866-.934,3.839-.944s2.347.956,3.8.941c1.637-.013,2.957-1.8,3.893-3.236A16.092,16.092,0,0,0,56.413,131,4.924,4.924,0,0,1,55.767,122.106Z" transform="translate(-37.336 -119.84)"/></g></g></svg>