<svg xmlns="http://www.w3.org/2000/svg" width="39.434" height="39.256" viewBox="0 0 39.434 39.256"><g opacity="0.4"><path d="M90.932,47.361H88.344a.511.511,0,0,1,0-1.022h2.588a.511.511,0,0,1,0,1.022Z" transform="translate(-76.323 -43.402)" fill="#ebe7f2"/><path d="M115.932,47.361h-2.588a.511.511,0,1,1,0-1.022h2.588a.511.511,0,0,1,0,1.022Z" transform="translate(-96.215 -43.402)" fill="#ebe7f2"/><path d="M140.932,47.361h-2.588a.511.511,0,1,1,0-1.022h2.588a.511.511,0,1,1,0,1.022Z" transform="translate(-116.107 -43.402)" fill="#ebe7f2"/><path d="M47.409,91.855H44.344a.511.511,0,1,1,0-1.022h3.065a.511.511,0,0,1,0,1.022Z" transform="translate(-41.313 -78.805)" fill="#600dff"/><path d="M47.409,118.522H44.344a.511.511,0,0,1,0-1.022h3.065a.511.511,0,0,1,0,1.022Z" transform="translate(-41.313 -100.024)" fill="#600dff"/><path d="M47.409,145.189H44.344a.511.511,0,1,1,0-1.022h3.065a.511.511,0,1,1,0,1.022Z" transform="translate(-41.313 -121.242)" fill="#600dff"/><path d="M45.876,50.086a2.043,2.043,0,1,1,2.043-2.043A2.043,2.043,0,0,1,45.876,50.086Zm0-3.065A1.022,1.022,0,1,0,46.9,48.043,1.022,1.022,0,0,0,45.876,47.022Z" transform="translate(-41.313 -43.133)" fill="#600dff"/><path d="M69.4,31.966H33.032A1.534,1.534,0,0,0,31.5,33.5V61.313a1.534,1.534,0,0,0,1.532,1.532H47.059a4.107,4.107,0,0,1-1.17,4.049l-.7.651H43.657a1.839,1.839,0,1,0,0,3.678h15.12a1.839,1.839,0,1,0,0-3.678H57.241l-.7-.651a4.107,4.107,0,0,1-1.17-4.049H69.4a1.534,1.534,0,0,0,1.532-1.532V33.5A1.534,1.534,0,0,0,69.4,31.966Zm.511,1.532v4.093h-28.5v-4.6H69.4A.511.511,0,0,1,69.912,33.5ZM32.522,61.313V33.5a.511.511,0,0,1,.511-.511h7.355V61.743a.511.511,0,0,0,.008.082H33.032a.511.511,0,0,1-.511-.512Zm27.072,8.071a.817.817,0,0,1-.817.817H43.657a.817.817,0,1,1,0-1.635h15.12A.817.817,0,0,1,59.594,69.384Zm-3.847-1.839h-9.06a5.128,5.128,0,0,0,1.423-4.7h6.214a5.128,5.128,0,0,0,1.423,4.7ZM69.4,61.824h-28a.511.511,0,0,0,.008-.082V38.613h28.5v22.7A.511.511,0,0,1,69.4,61.824Z" transform="translate(-31.5 -31.966)" fill="#0d285a"/><path d="M98.072,72.833a5.185,5.185,0,0,0-3.351,1.225.51.51,0,0,0-.086.068.23.23,0,0,0-.016.02,5.206,5.206,0,1,0,3.453-1.313Zm4.154,4.7h-1.445a2.751,2.751,0,0,0-3.961-1.944l-1.043-1.044a4.181,4.181,0,0,1,6.45,2.988ZM98.072,79.78a1.737,1.737,0,1,1,1.737-1.737A1.737,1.737,0,0,1,98.072,79.78Zm-4.189-1.737A4.168,4.168,0,0,1,95,75.209l1.011,1.011a2.752,2.752,0,0,0,1.553,4.532V82.2a4.193,4.193,0,0,1-3.677-4.154Zm4.7,4.154V80.752a2.764,2.764,0,0,0,2.2-2.2h1.445A4.193,4.193,0,0,1,98.583,82.2Z" transform="translate(-80.33 -64.483)" fill="#0d285a"/><path d="M157.344,81.189h2.52a.511.511,0,0,0,0-1.022h-2.52a.511.511,0,0,0,0,1.022Z" transform="translate(-131.225 -70.319)" fill="#0d285a"/><path d="M166.334,93.5h-8.99a.511.511,0,0,0,0,1.022h8.99a.511.511,0,0,0,0-1.022Z" transform="translate(-131.225 -80.927)" fill="#0d285a"/><path d="M164.188,107.344a.511.511,0,0,0-.511-.511h-6.334a.511.511,0,0,0,0,1.022h6.334A.511.511,0,0,0,164.188,107.344Z" transform="translate(-131.225 -91.536)" fill="#0d285a"/><path d="M97.193,130.994H94.678a.511.511,0,0,0-.511.511v5.824a.511.511,0,0,0,.511.511h2.515a.511.511,0,0,0,.511-.511V131.5A.511.511,0,0,0,97.193,130.994Zm-.511,5.824H95.189v-4.8h1.493Z" transform="translate(-81.363 -110.761)" fill="#0d285a"/><path d="M120.782,142.5h-2.515a.511.511,0,0,0-.511.511v3.473a.511.511,0,0,0,.511.511h2.515a.511.511,0,0,0,.511-.511v-3.473A.511.511,0,0,0,120.782,142.5Zm-.511,3.473h-1.493v-2.452h1.493Z" transform="translate(-100.133 -119.916)" fill="#0d285a"/><path d="M144.372,149.167h-2.515a.511.511,0,0,0-.511.511v2.111a.511.511,0,0,0,.511.511h2.515a.511.511,0,0,0,.511-.511v-2.111A.511.511,0,0,0,144.372,149.167Zm-.511,2.111h-1.493v-1.09h1.493Z" transform="translate(-118.902 -125.221)" fill="#0d285a"/><path d="M167.961,137.5h-2.515a.511.511,0,0,0-.511.511v4.495a.511.511,0,0,0,.511.511h2.515a.511.511,0,0,0,.511-.511v-4.495A.511.511,0,0,0,167.961,137.5Zm-.511,4.495h-1.493v-3.473h1.493Z" transform="translate(-137.673 -115.938)" fill="#0d285a"/><path d="M191.551,130.994h-2.515a.511.511,0,0,0-.511.511v5.824a.511.511,0,0,0,.511.511h2.515a.511.511,0,0,0,.511-.511V131.5A.511.511,0,0,0,191.551,130.994Zm-.511,5.824h-1.493v-4.8h1.493Z" transform="translate(-156.442 -110.761)" fill="#0d285a"/></g></svg>