<svg xmlns="http://www.w3.org/2000/svg" width="40.583" height="40.514" viewBox="0 0 40.583 40.514"><g transform="translate(-31.5 -31.965)" opacity="0.4"><path d="M49.434,85.549a.527.527,0,0,1-.527-.527V60.027a.527.527,0,0,1,1.054,0V85.022A.527.527,0,0,1,49.434,85.549Z" transform="translate(-13.737 -21.729)" fill="#ebe7f2"/><path d="M202.62,85.549a.527.527,0,0,1-.527-.527V60.027a.527.527,0,0,1,1.054,0V85.022A.527.527,0,0,1,202.62,85.549Z" transform="translate(-134.621 -21.729)" fill="#ebe7f2"/><path d="M102.146,96.128a1.47,1.47,0,0,1-1.046-.433l-5.941-5.941a10.78,10.78,0,1,1,2.092-2.093l5.941,5.941a1.48,1.48,0,0,1-1.046,2.526ZM95.2,88.522a.527.527,0,0,1,.373.154l6.273,6.273a.436.436,0,0,0,.6,0,.425.425,0,0,0,0-.6l-6.273-6.273a.527.527,0,0,1-.033-.71,9.727,9.727,0,1,0-1.278,1.278.527.527,0,0,1,.337-.121Zm-6.532,1.51a8.862,8.862,0,1,1,8.862-8.862A8.862,8.862,0,0,1,88.667,90.032Zm0-16.67a7.808,7.808,0,1,0,7.808,7.808A7.808,7.808,0,0,0,88.667,73.362Z" transform="translate(-36.595 -30.312)" fill="#600dff"/><path d="M114.643,104.516h.886a.527.527,0,0,0,0-1.054h-.886v-.633a1.943,1.943,0,0,0,1.413-1.866.527.527,0,1,0-1.054,0,.888.888,0,0,1-.886.886h-.466a2.4,2.4,0,0,0-.392-2.127.949.949,0,0,1,.962-.744.527.527,0,0,0,0-1.054A2.043,2.043,0,0,0,112.4,99a2.4,2.4,0,0,0-2.17,0,2.043,2.043,0,0,0-1.82-1.08.527.527,0,1,0,0,1.054.949.949,0,0,1,.961.744,2.4,2.4,0,0,0-.391,2.127h-.466a.888.888,0,0,1-.886-.886.527.527,0,1,0-1.054,0,1.943,1.943,0,0,0,1.413,1.866v.633H107.1a.527.527,0,0,0,0,1.054h.886v.283c0,.108.006.215.016.321a1.942,1.942,0,0,0-1.43,1.87.527.527,0,1,0,1.054,0,.886.886,0,0,1,.645-.849,3.325,3.325,0,0,0,6.087,0,.886.886,0,0,1,.644.849.527.527,0,0,0,1.054,0,1.942,1.942,0,0,0-1.43-1.87c.01-.105.016-.212.016-.321Zm-4.706-3.338a1.378,1.378,0,1,1,2.756,0,1.362,1.362,0,0,1-.174.671h-2.407A1.362,1.362,0,0,1,109.936,101.178Zm-.9,3.621v-1.9h1.747v4.105A2.277,2.277,0,0,1,109.04,104.8Zm2.8,2.21V102.9h1.747v1.9A2.277,2.277,0,0,1,111.841,107.009Z" transform="translate(-59.242 -52.05)" fill="#600dff"/><g transform="translate(31.5 31.965)"><path d="M72.056,62.165V33.546a1.583,1.583,0,0,0-1.581-1.581H33.081A1.583,1.583,0,0,0,31.5,33.546V62.252a1.583,1.583,0,0,0,1.581,1.581H47.558a4.238,4.238,0,0,1-1.208,4.177l-.719.672H44.046a1.9,1.9,0,0,0,0,3.8h15.6a1.9,1.9,0,1,0,0-3.8H58.066l-.719-.671a4.238,4.238,0,0,1-1.208-4.177H60.57a.527.527,0,1,0,0-1.054H33.081a.527.527,0,0,1-.527-.527V38.825H71V62.218a.52.52,0,0,0,.013.117.335.335,0,0,1-.055.3.439.439,0,0,1-.345.148H68.543a.527.527,0,0,0,0,1.054h2.072a1.48,1.48,0,0,0,1.169-.546,1.371,1.371,0,0,0,.272-1.123ZM60.494,70.581a.843.843,0,0,1-.843.843h-15.6a.843.843,0,1,1,0-1.687h15.6A.843.843,0,0,1,60.494,70.581Zm-3.965-1.9h-9.36a5.29,5.29,0,0,0,1.472-4.849h6.415A5.289,5.289,0,0,0,56.528,68.684ZM32.554,37.771V33.546a.527.527,0,0,1,.527-.527H70.474a.527.527,0,0,1,.527.527v4.225Z" transform="translate(-31.5 -31.965)" fill="#0d285a"/><path d="M46.408,41.589a1.529,1.529,0,1,0,1.529,1.529A1.529,1.529,0,0,0,46.408,41.589Zm0,2a.474.474,0,1,1,.474-.474A.474.474,0,0,1,46.408,43.592Z" transform="translate(-42.058 -39.56)" fill="#0d285a"/><path d="M64.908,41.589a1.529,1.529,0,1,0,1.529,1.529A1.529,1.529,0,0,0,64.908,41.589Zm0,2a.474.474,0,1,1,.474-.474.474.474,0,0,1-.474.474Z" transform="translate(-56.657 -39.56)" fill="#0d285a"/><path d="M83.408,41.589a1.529,1.529,0,1,0,1.529,1.529A1.529,1.529,0,0,0,83.408,41.589Zm0,2a.474.474,0,1,1,.474-.474A.474.474,0,0,1,83.408,43.592Z" transform="translate(-71.256 -39.56)" fill="#0d285a"/><path d="M180.475,46.339H174.36a.527.527,0,0,0,0,1.054h6.115a.527.527,0,1,0,0-1.054Z" transform="translate(-143.82 -43.308)" fill="#0d285a"/></g></g></svg>