<svg xmlns="http://www.w3.org/2000/svg" width="37.501" height="38.83" viewBox="0 0 37.501 38.83"><g transform="translate(-23.236 -19.536)" opacity="0.4"><path d="M125.947,142.961a.447.447,0,0,1-.447-.447v-8.2a.447.447,0,1,1,.895,0v8.2A.447.447,0,0,1,125.947,142.961Z" transform="translate(-83.961 -93.869)" fill="#ebe7f2"/><g transform="translate(23.236 27.732)"><path d="M58.469,65.326H51.962a.447.447,0,1,0,0,.895h6.507a1.375,1.375,0,0,1,1.373,1.373V86.577a1.375,1.375,0,0,1-1.373,1.373H25.5a1.375,1.375,0,0,1-1.373-1.373V67.594A1.374,1.374,0,0,1,25.5,66.221h6.507a.447.447,0,0,0,0-.895H25.5a2.271,2.271,0,0,0-2.268,2.268V86.577A2.271,2.271,0,0,0,25.5,88.845H58.469a2.271,2.271,0,0,0,2.268-2.268V67.594A2.271,2.271,0,0,0,58.469,65.326Z" transform="translate(-23.236 -65.326)" fill="#0d285a"/><path d="M94.781,205.04h-4.4v-2.859a.447.447,0,1,0-.895,0v2.859h-4.2v-2.859a.447.447,0,1,0-.895,0v2.859h-4.4a1.457,1.457,0,0,0,0,2.915H94.78a1.457,1.457,0,0,0,0-2.915Zm0,2.02H79.987a.562.562,0,0,1,0-1.125H94.781a.562.562,0,0,1,0,1.125Z" transform="translate(-68.634 -177.32)" fill="#0d285a"/></g><g transform="translate(33.353 19.536)"><path d="M100.7,92.221l-7.1-4.1a.448.448,0,0,0-.447,0l-7.1,4.1a.448.448,0,0,0-.224.387v8.2a.448.448,0,0,0,.224.387l7.1,4.1a.447.447,0,0,0,.447,0l7.1-4.1a.448.448,0,0,0,.224-.387v-8.2A.448.448,0,0,0,100.7,92.221Zm-7.324-3.2,6.205,3.583-6.205,3.583-6.205-3.583Zm0,15.364-6.653-3.841V93.384L93.154,97.1a.447.447,0,0,0,.447,0l6.429-3.712v7.165Z" transform="translate(-84.744 -75.798)" fill="#600dff"/><path d="M108.608,30.59a.447.447,0,0,1-.447-.447V24.137a.447.447,0,0,1,.447-.447h1.264l-3.078-3.078-3.078,3.078h1.264a.447.447,0,0,1,.447.447v6.006a.447.447,0,0,1-.895,0V24.584h-1.9a.447.447,0,0,1-.316-.764l4.158-4.158a.46.46,0,0,1,.633,0l4.158,4.158a.447.447,0,0,1-.316.764h-1.9v5.558a.447.447,0,0,1-.447.447Z" transform="translate(-98.174 -19.536)" fill="#600dff"/><path d="M146.823,58.224a.447.447,0,0,1-.447-.447V54.089a.447.447,0,0,1,.447-.447h.359l-1.473-1.473-1.473,1.473h.359a.447.447,0,0,1,.447.447v3.687a.447.447,0,1,1-.895,0v-3.24h-.992a.447.447,0,0,1-.316-.764l2.553-2.553a.46.46,0,0,1,.633,0l2.553,2.553a.447.447,0,0,1-.316.764h-.992v3.24A.448.448,0,0,1,146.823,58.224Z" transform="translate(-131.443 -45.446)" fill="#600dff"/><path d="M83.876,58.2a.447.447,0,0,1-.447-.447V54.065a.447.447,0,0,1,.447-.447h.359l-1.473-1.473-1.473,1.473h.359a.447.447,0,0,1,.447.447v3.687a.447.447,0,0,1-.895,0v-3.24h-.992a.447.447,0,0,1-.316-.764L82.446,51.2a.448.448,0,0,1,.633,0l2.553,2.553a.447.447,0,0,1-.316.764h-.992v3.24A.448.448,0,0,1,83.876,58.2Z" transform="translate(-79.762 -45.421)" fill="#600dff"/></g></g></svg>