<svg xmlns="http://www.w3.org/2000/svg" width="20.239" height="18.701" viewBox="0 0 20.239 18.701"><path d="M20.2,11.36,19.068,7.865,16.825.933a.388.388,0,0,0-.736,0L13.846,7.861H6.391L4.148.933a.387.387,0,0,0-.735,0L1.173,7.861.039,11.36a.776.776,0,0,0,.279.865l9.8,7.143,9.8-7.143a.777.777,0,0,0,.284-.865Z" transform="translate(0 -0.667)" fill="#fc6d26"/><path d="M8.78,17.855l3.727-11.5H5.055Z" transform="translate(1.34 0.84)" fill="#e24329"/><path d="M9.873,17.855,6.145,6.353H.929Z" transform="translate(0.246 0.84)" fill="#fc6d26"/><path d="M1.172,6.356.038,9.851a.776.776,0,0,0,.279.865l9.8,7.144Z" transform="translate(0 0.841)" fill="#fca326"/><path d="M.928,7.862H6.15L3.9.935a.388.388,0,0,0-.736,0Z" transform="translate(0.246 -0.666)" fill="#e24329"/><path d="M8,17.855l3.727-11.5h5.224Z" transform="translate(2.12 0.84)" fill="#fc6d26"/><path d="M16.947,6.356l1.134,3.495a.774.774,0,0,1-.279.865L8,17.855l8.945-11.5Z" transform="translate(2.12 0.841)" fill="#fca326"/><path d="M16.169,7.862H10.947L13.19.934a.387.387,0,0,1,.735,0Z" transform="translate(2.901 -0.666)" fill="#e24329"/></svg>