<svg xmlns="http://www.w3.org/2000/svg" width="39.46" height="42.426" viewBox="0 0 39.46 42.426"><g transform="translate(-19 -15.287)"><g transform="translate(-41.135 -22.277)" opacity="0.4"><path d="M91.385,55.376a.586.586,0,0,0,.586-.586V39.323a1.761,1.761,0,0,0-1.759-1.759H71.142a1.748,1.748,0,0,0-1.243.516l-9.248,9.246a1.747,1.747,0,0,0-.516,1.243V78.231a1.761,1.761,0,0,0,1.759,1.759H90.212a1.761,1.761,0,0,0,1.759-1.759V74.962a.586.586,0,0,0-1.173,0v3.269a.586.586,0,0,1-.586.586H61.895a.586.586,0,0,1-.586-.586V48.671h9.348a.586.586,0,0,0,.586-.586V38.737h18.97a.586.586,0,0,1,.586.586V54.789A.586.586,0,0,0,91.385,55.376ZM62.138,47.5l7.932-7.932V47.5Z" transform="translate(0)" fill="#0d285a"/><g transform="translate(65.794 53.39)"><path d="M167.378,134.921h-1.6a1.294,1.294,0,0,1-1.252-.969l-.362-1.405-1.249.737a1.294,1.294,0,0,1-1.572-.2l-1.134-1.135a1.294,1.294,0,0,1-.2-1.572l.737-1.25-1.4-.362a1.3,1.3,0,0,1-.97-1.253v-1.6a1.294,1.294,0,0,1,.97-1.253l1.4-.362L160,123.045a1.3,1.3,0,0,1,.2-1.572l1.135-1.134a1.294,1.294,0,0,1,1.572-.2l1.25.737.362-1.4a1.294,1.294,0,0,1,1.253-.97h1.6a1.294,1.294,0,0,1,1.253.97l.362,1.4,1.249-.737a1.294,1.294,0,0,1,1.572.2l1.135,1.135a1.294,1.294,0,0,1,.2,1.572l-.737,1.249,1.4.362a1.294,1.294,0,0,1,.969,1.253v1.6a1.294,1.294,0,0,1-.969,1.253l-1.405.362.737,1.249a1.294,1.294,0,0,1-.2,1.572l-1.135,1.135a1.294,1.294,0,0,1-1.572.2l-1.249-.737-.362,1.4A1.3,1.3,0,0,1,167.378,134.921Zm-2.846-3.862a.586.586,0,0,1,.568.44l.556,2.159a.121.121,0,0,0,.117.09h1.6a.122.122,0,0,0,.117-.091l.556-2.158a.586.586,0,0,1,.866-.359l1.92,1.133a.121.121,0,0,0,.147-.019l1.135-1.134a.122.122,0,0,0,.019-.148L171,129.053a.586.586,0,0,1,.359-.866l2.159-.556a.121.121,0,0,0,.09-.117v-1.6a.121.121,0,0,0-.091-.117l-2.158-.556a.586.586,0,0,1-.359-.866l1.133-1.92a.121.121,0,0,0-.019-.147l-1.135-1.135a.121.121,0,0,0-.147-.019l-1.919,1.133a.586.586,0,0,1-.866-.359l-.556-2.158a.121.121,0,0,0-.117-.09h-1.6a.121.121,0,0,0-.117.091l-.556,2.158a.586.586,0,0,1-.866.359l-1.92-1.133a.121.121,0,0,0-.147.019l-1.135,1.135a.122.122,0,0,0-.019.147l1.133,1.919a.586.586,0,0,1-.359.866l-2.158.556a.121.121,0,0,0-.09.117v1.6a.122.122,0,0,0,.091.117l2.158.556a.586.586,0,0,1,.359.866l-1.133,1.92a.122.122,0,0,0,.019.147l1.135,1.135a.121.121,0,0,0,.148.019l1.919-1.133A.586.586,0,0,1,164.532,131.059Z" transform="translate(-140.984 -115.343)" fill="#600dff"/><path d="M183.422,146.606a3.046,3.046,0,1,1,3.046-3.046A3.046,3.046,0,0,1,183.422,146.606Zm0-4.919a1.873,1.873,0,1,0,1.873,1.873A1.873,1.873,0,0,0,183.422,141.687Z" transform="translate(-157.831 -132.192)" fill="#600dff"/><path d="M104.194,106.208H84.847a.586.586,0,1,1,0-1.173h19.346a.586.586,0,0,1,0,1.173Z" transform="translate(-84.261 -105.035)" fill="#600dff"/><path d="M99.5,133.673H84.847a.586.586,0,1,1,0-1.173H99.5a.586.586,0,1,1,0,1.173Z" transform="translate(-84.261 -126.058)" fill="#600dff"/><path d="M99.5,161.138H84.847a.586.586,0,1,1,0-1.173H99.5a.586.586,0,0,1,0,1.173Z" transform="translate(-84.261 -147.08)" fill="#600dff"/><path d="M104.194,188.6H84.847a.586.586,0,1,1,0-1.173h19.346a.586.586,0,0,1,0,1.173Z" transform="translate(-84.261 -168.104)" fill="#600dff"/></g></g></g></svg>