<svg xmlns="http://www.w3.org/2000/svg" width="42.302" height="42.302" viewBox="0 0 42.302 42.302"><g opacity="0.4"><path d="M83.641,53.059,70.17,45.282a.483.483,0,0,0-.484,0L56.215,53.059a.484.484,0,0,0-.242.419V69.034a.484.484,0,0,0,.242.419L69.686,77.23a.484.484,0,0,0,.484,0l13.471-7.777a.484.484,0,0,0,.242-.419V53.479a.484.484,0,0,0-.242-.419Zm-.727,15.695-12.986,7.5-12.986-7.5v-15l12.986-7.5,12.986,7.5Z" transform="translate(-48.777 -40.105)" fill="#0d285a"/><path d="M99.233,74.309a6.932,6.932,0,0,0-6.371,6.57,6.853,6.853,0,0,0,2.267,5.381,3.752,3.752,0,0,1,1.2,2.8v.079a1.3,1.3,0,0,0,.631,1.114V93.18a1.431,1.431,0,0,0,1.43,1.43h.026v.544a1.1,1.1,0,0,0,1.1,1.1h.407a1.1,1.1,0,0,0,1.1-1.1V94.61h.025a1.431,1.431,0,0,0,1.43-1.43V90.25a1.3,1.3,0,0,0,.631-1.114v-.142a3.809,3.809,0,0,1,1.258-2.782,6.866,6.866,0,0,0-5.136-11.9Zm.824,20.844a.13.13,0,0,1-.13.13h-.407a.13.13,0,0,1-.13-.13v-.544h.668Zm.994-1.513H98.394a.461.461,0,0,1-.461-.461v-2.74h3.578v2.74A.462.462,0,0,1,101.05,93.64Zm2.694-16.8a5.9,5.9,0,0,1-.031,8.654,4.78,4.78,0,0,0-1.571,3.5v.142a.334.334,0,0,1-.334.334H97.636a.334.334,0,0,1-.334-.334v-.079a4.721,4.721,0,0,0-1.525-3.517,5.888,5.888,0,0,1-1.947-4.623,5.952,5.952,0,0,1,5.47-5.642q.214-.015.426-.015A5.841,5.841,0,0,1,103.745,76.845Z" transform="translate(-78.514 -63.545)" fill="#0d285a"/><path d="M109.93,101.763c-.023,0-.046,0-.069,0a1.372,1.372,0,0,1-.991-.5l-1.724-2.108a1.37,1.37,0,1,1,2.121-1.735l.766.936,2.666-2.666a1.37,1.37,0,0,1,1.938,1.938l-3.736,3.737A1.361,1.361,0,0,1,109.93,101.763Zm-1.724-3.879a.4.4,0,0,0-.31.655l1.724,2.108a.4.4,0,0,0,.291.147h.019a.4.4,0,0,0,.284-.118l3.737-3.737a.4.4,0,0,0,0-.567.41.41,0,0,0-.567,0l-3.045,3.044a.484.484,0,0,1-.717-.036l-1.1-1.35a.4.4,0,0,0-.313-.147Z" transform="translate(-89.785 -80.473)" fill="#600dff"/><path d="M125.984,23.345a.484.484,0,0,1-.484-.484V19.317a.484.484,0,1,1,.969,0V22.86A.484.484,0,0,1,125.984,23.345Z" transform="translate(-104.833 -18.833)" fill="#600dff"/><path d="M125.984,218.393a.484.484,0,0,1-.484-.484v-3.543a.484.484,0,0,1,.969,0v3.543A.484.484,0,0,1,125.984,218.393Z" transform="translate(-104.833 -176.09)" fill="#600dff"/><path d="M74.421,37.16a.484.484,0,0,1-.42-.242L72.23,33.85a.484.484,0,0,1,.839-.484l1.772,3.068a.484.484,0,0,1-.419.727Z" transform="translate(-61.832 -30.354)" fill="#600dff"/><path d="M171.946,206.077a.484.484,0,0,1-.42-.242l-1.771-3.068a.484.484,0,1,1,.839-.484l1.772,3.068a.484.484,0,0,1-.419.727Z" transform="translate(-140.461 -166.543)" fill="#600dff"/><path d="M170.174,37.16a.484.484,0,0,1-.419-.727l1.771-3.068a.484.484,0,1,1,.839.484l-1.772,3.068A.484.484,0,0,1,170.174,37.16Z" transform="translate(-140.462 -30.354)" fill="#600dff"/><path d="M72.65,206.077a.484.484,0,0,1-.419-.727L74,202.282a.484.484,0,0,1,.839.484l-1.771,3.068A.484.484,0,0,1,72.65,206.077Z" transform="translate(-61.833 -166.543)" fill="#600dff"/><path d="M217.908,126.469h-3.543a.484.484,0,0,1,0-.969h3.543a.484.484,0,0,1,0,.969Z" transform="translate(-176.09 -104.833)" fill="#600dff"/><path d="M22.86,126.469H19.317a.484.484,0,1,1,0-.969H22.86a.484.484,0,1,1,0,.969Z" transform="translate(-18.833 -104.833)" fill="#600dff"/><path d="M34,171.745a.484.484,0,0,1-.243-.9l3.068-1.771a.484.484,0,0,1,.484.839l-3.068,1.771a.483.483,0,0,1-.242.065Z" transform="translate(-30.674 -139.909)" fill="#600dff"/><path d="M202.921,74.22a.484.484,0,0,1-.243-.9l3.068-1.772a.484.484,0,0,1,.484.839l-3.068,1.771A.481.481,0,0,1,202.921,74.22Z" transform="translate(-166.863 -61.279)" fill="#600dff"/><path d="M205.2,171.745a.483.483,0,0,1-.242-.065l-3.068-1.771a.484.484,0,1,1,.484-.839l3.068,1.771a.484.484,0,0,1-.243.9Z" transform="translate(-166.224 -139.909)" fill="#600dff"/><path d="M36.28,74.22a.481.481,0,0,1-.242-.065L32.97,72.384a.484.484,0,1,1,.484-.839l3.068,1.772a.484.484,0,0,1-.243.9Z" transform="translate(-30.035 -61.279)" fill="#600dff"/></g></svg>