<svg xmlns="http://www.w3.org/2000/svg" width="19.144" height="19.14" viewBox="0 0 19.144 19.14"><g transform="translate(-4.493 -4.496)"><path d="M22.981,8.167,15.535,4.773a4.033,4.033,0,0,0-2.936,0L5.158,8.167c-.877.4-.877,1.052,0,1.45l7.376,3.364a4.238,4.238,0,0,0,3.07,0l7.376-3.364C23.858,9.219,23.858,8.566,22.981,8.167Z" transform="translate(-0.002)" fill="#7e5df4"/><g transform="translate(4.493 12.562)"><path d="M12.534,25.421,7.56,23.153a.809.809,0,0,0-.663,0l-1.739.792c-.877.4-.877,1.052,0,1.45l7.376,3.364a4.238,4.238,0,0,0,3.07,0L22.981,25.4c.877-.4.877-1.052,0-1.45l-1.739-.792a.809.809,0,0,0-.663,0L15.6,25.421A4.238,4.238,0,0,1,12.534,25.421Z" transform="translate(-4.495 -17.973)" fill="#7e5df4"/><path d="M22.979,16.664l-1.58-.718a.8.8,0,0,0-.658,0l-5.383,2.437a4.4,4.4,0,0,1-2.587,0L7.389,15.946a.8.8,0,0,0-.658,0l-1.58.718c-.877.4-.877,1.052,0,1.45l7.376,3.364a4.238,4.238,0,0,0,3.07,0l7.376-3.364C23.856,17.715,23.856,17.062,22.979,16.664Z" transform="translate(-4.493 -15.875)" fill="#7e5df4"/></g></g></svg>