<svg xmlns="http://www.w3.org/2000/svg" width="29.043" height="21.75" viewBox="0 0 29.043 21.75"><g transform="translate(-0.528 -283.242)"><path d="M5.833,291.973a2.4,2.4,0,0,1-.072.9A3.653,3.653,0,0,1,4.4,294.811c-.141.113-.122.274-.122.425H12.81c0-.151.02-.312-.121-.425a3.663,3.663,0,0,1-1.368-1.935,2.419,2.419,0,0,1-.073-.9Z" transform="translate(3.952 9.213)" fill="#e22a72"/><path d="M2.162,283.242a1.641,1.641,0,0,0-1.634,1.63V300.1a1.641,1.641,0,0,0,1.634,1.63H22.828a1.637,1.637,0,0,0,1.63-1.63V284.872a1.637,1.637,0,0,0-1.63-1.63Z" fill="#ff3987"/><path d="M1.6,283.772H22.269a.528.528,0,0,1,.542.542v11.42H1.058v-11.42a.531.531,0,0,1,.546-.542Z" transform="translate(0.559 0.559)" fill="#dbe9ee"/><path d="M6.376,291.738H7.464a.544.544,0,1,0,0-1.088H6.35A.544.544,0,1,0,6.376,291.738Z" transform="translate(5.573 7.818)" fill="#dbe9ee"/><path d="M4.247,293.3a.544.544,0,0,0,0,1.088h9.791a.544.544,0,0,0,0-1.088Z" transform="translate(3.35 10.609)" fill="#ff3987"/><path d="M2.125,286.942a.544.544,0,0,0-.538.554v3.26a.544.544,0,0,0,1.088,0V287.5a.544.544,0,0,0-.55-.554Z" transform="translate(1.117 3.904)" fill="#c8d4d9"/><path d="M2.125,285.354a.544.544,0,0,0-.538.554V287a.544.544,0,0,0,1.088,0v-1.088a.544.544,0,0,0-.55-.554Z" transform="translate(1.117 2.228)" fill="#c8d4d9"/><path d="M9.233,284.828a1.306,1.306,0,0,0-1.3,1.3v12.089a1.3,1.3,0,0,0,1.3,1.294H17a1.3,1.3,0,0,0,1.3-1.294V286.126a1.306,1.306,0,0,0-1.3-1.3Z" transform="translate(7.818 5.483)" fill="#600dff"/><path d="M8.466,285.887H17.1v9.5H8.466Z" transform="translate(8.153 6.152)" fill="#dbe9ee"/><path d="M13.994,288A1.3,1.3,0,0,0,12.7,289.3v6.911a1.3,1.3,0,0,0,1.294,1.294h3.455a1.3,1.3,0,0,0,1.294-1.294V289.3A1.3,1.3,0,0,0,17.449,288Z" transform="translate(10.829 7.49)" fill="#4b688c"/><path d="M13.23,289.063h4.315v6.042H13.23Z" transform="translate(11.163 8.159)" fill="#dbe9ee"/><path d="M11.016,292.237a.432.432,0,1,0,0,.864h.864a.432.432,0,1,0,0-.864Z" transform="translate(9.491 10.164)" fill="#dbe9ee"/><g transform="translate(17.482 293.76)"><path d="M9.422,288.53a.432.432,0,0,0-.427.437v2.591a.432.432,0,0,0,.864,0v-2.591a.432.432,0,0,0-.437-.437Z" transform="translate(-8.995 -285.938)" fill="#c8d4d9"/><path d="M9.422,286.942a.432.432,0,0,0-.427.44v.864a.432.432,0,0,0,.864,0v-.864a.432.432,0,0,0-.437-.44Z" transform="translate(-8.996 -286.942)" fill="#c8d4d9"/></g></g></svg>