<svg xmlns="http://www.w3.org/2000/svg" width="39.288" height="39.112" viewBox="0 0 39.288 39.112"><g transform="translate(-31.5 -31.965)" opacity="0.4"><path d="M49.416,84.647a.509.509,0,0,1-.509-.509V60.009a.509.509,0,0,1,1.018,0v24.13A.509.509,0,0,1,49.416,84.647Z" transform="translate(-13.864 -21.93)" fill="#ebe7f2"/><path d="M202.6,84.647a.509.509,0,0,1-.509-.509V60.009a.509.509,0,0,1,1.018,0v24.13A.509.509,0,0,1,202.6,84.647Z" transform="translate(-135.866 -21.93)" fill="#ebe7f2"/><g transform="translate(31.5 31.965)"><path d="M69.261,31.965H33.027A1.529,1.529,0,0,0,31.5,33.492V61.2a1.528,1.528,0,0,0,1.527,1.527H47a4.092,4.092,0,0,1-1.166,4.034l-.695.648h-1.53a1.832,1.832,0,1,0,0,3.664H58.676a1.832,1.832,0,1,0,0-3.664h-1.53l-.695-.648a4.092,4.092,0,0,1-1.165-4.034H69.261A1.528,1.528,0,0,0,70.788,61.2V33.492A1.529,1.529,0,0,0,69.261,31.965ZM33.027,32.983H69.261a.509.509,0,0,1,.509.509V37.57H32.518V33.492A.509.509,0,0,1,33.027,32.983ZM59.49,69.245a.814.814,0,0,1-.814.814H43.612a.814.814,0,0,1,0-1.629H58.676A.814.814,0,0,1,59.49,69.245Zm-3.833-1.832H46.631a5.109,5.109,0,0,0,1.418-4.682h6.191a5.109,5.109,0,0,0,1.418,4.682Zm13.6-5.7H33.027a.509.509,0,0,1-.509-.509V38.588H69.77V61.2A.509.509,0,0,1,69.261,61.713Z" transform="translate(-31.5 -31.965)" fill="#0d285a"/><path d="M46.354,44.541a1.476,1.476,0,1,0-1.476-1.476A1.476,1.476,0,0,0,46.354,44.541Zm0-1.934a.458.458,0,1,1-.458.458A.458.458,0,0,1,46.354,42.607Z" transform="translate(-42.155 -39.63)" fill="#0d285a"/><path d="M64.854,44.541a1.476,1.476,0,1,0-1.476-1.476A1.476,1.476,0,0,0,64.854,44.541Zm0-1.934a.458.458,0,1,1-.458.458A.458.458,0,0,1,64.854,42.607Z" transform="translate(-56.889 -39.63)" fill="#0d285a"/><path d="M83.355,44.541a1.476,1.476,0,1,0-1.476-1.476A1.476,1.476,0,0,0,83.355,44.541Zm0-1.934a.458.458,0,1,1-.458.458A.458.458,0,0,1,83.355,42.607Z" transform="translate(-71.624 -39.63)" fill="#0d285a"/><path d="M174.342,47.357h5.9a.509.509,0,0,0,0-1.018h-5.9a.509.509,0,1,0,0,1.018Z" transform="translate(-144.859 -43.413)" fill="#0d285a"/></g><path d="M107.457,96.074a1.527,1.527,0,0,1-1.409-2.113L111.979,79.7a1.527,1.527,0,0,1,2.819,1.173l-5.931,14.258a1.523,1.523,0,0,1-1.41.94Zm5.933-16.294a.51.51,0,0,0-.471.313l-5.931,14.258a.509.509,0,0,0,.274.665.517.517,0,0,0,.665-.274l5.931-14.258a.509.509,0,0,0-.468-.7Z" transform="translate(-59.279 -37.271)" fill="#600dff"/><path d="M153.082,103.2A1.527,1.527,0,0,1,152,100.59l3.57-3.571L152,93.449a1.527,1.527,0,1,1,2.158-2.159l4.65,4.649a1.527,1.527,0,0,1,0,2.159l-4.649,4.65A1.517,1.517,0,0,1,153.082,103.2Zm0-11.335a.509.509,0,0,0-.36.868l3.931,3.93a.509.509,0,0,1,0,.72l-3.931,3.93a.509.509,0,0,0,0,.72.522.522,0,0,0,.72,0l4.65-4.65a.509.509,0,0,0,0-.72l-4.65-4.65A.509.509,0,0,0,153.082,91.86Z" transform="translate(-95.595 -46.871)" fill="#600dff"/><path d="M72.679,103.3a1.516,1.516,0,0,1-1.079-.448L66.95,98.2a1.527,1.527,0,0,1,0-2.159l4.649-4.65a1.527,1.527,0,1,1,2.159,2.159l-3.57,3.571,3.57,3.571a1.527,1.527,0,0,1-1.079,2.606Zm0-11.335a.509.509,0,0,0-.36.149l-4.65,4.65a.509.509,0,0,0,0,.72l4.65,4.651a.522.522,0,0,0,.72,0,.509.509,0,0,0,0-.72l-3.931-3.931a.509.509,0,0,1,0-.72l3.93-3.93a.509.509,0,0,0-.36-.868Z" transform="translate(-27.878 -46.971)" fill="#600dff"/></g></svg>