<svg xmlns="http://www.w3.org/2000/svg" width="54.62" height="40.418" viewBox="0 0 54.62 40.418"><g transform="translate(-13.5 -43.271)" opacity="0.4"><path d="M175.941,139.8a1.785,1.785,0,1,1,1.785-1.785,1.785,1.785,0,0,1-1.785,1.785Zm0-2.378a.593.593,0,1,0,.593.593.593.593,0,0,0-.593-.593Z" transform="translate(-122.337 -70.787)" fill="#ebe7f2"/><path d="M37.982,194.221a1.785,1.785,0,1,1,1.785-1.785A1.785,1.785,0,0,1,37.982,194.221Zm0-2.378a.593.593,0,1,0,.592.593.593.593,0,0,0-.592-.593Z" transform="translate(-17.283 -112.227)" fill="#ebe7f2"/><path d="M35.441,148.242H29.66a.6.6,0,0,1-.6-.6v-5.779a.6.6,0,0,1,.6-.6h5.781a.6.6,0,0,1,.6.6v5.779A.6.6,0,0,1,35.441,148.242Zm-5.184-1.193h4.588v-4.587H30.257Z" transform="translate(-11.852 -74.625)" fill="#600dff"/><path d="M170.317,90.908h-8.593a.6.6,0,0,1-.6-.6V81.719a.6.6,0,0,1,.6-.6h8.593a.6.6,0,0,1,.6.6v8.592A.6.6,0,0,1,170.317,90.908Zm-8-1.193h7.4v-7.4h-7.4Z" transform="translate(-112.416 -28.824)" fill="#600dff"/><g transform="translate(13.5 43.271)"><path d="M110.32,164.306a.6.6,0,0,0-.6.6v.724a.453.453,0,0,1-.453.452H80.025a.6.6,0,0,0,0,1.193h6.263a4.121,4.121,0,0,1-1.193,4.017l-.695.647H82.854a1.959,1.959,0,1,0,0,3.918H98.369a1.959,1.959,0,1,0,0-3.918H96.821l-.695-.647a4.121,4.121,0,0,1-1.193-4.017h14.337a1.646,1.646,0,0,0,1.646-1.645V164.9a.6.6,0,0,0-.6-.6Zm-11.184,9.587a.768.768,0,0,1-.767.767H82.854a.767.767,0,0,1,0-1.533H98.369A.767.767,0,0,1,99.136,173.893Zm-4.05-1.959H86.137a5.314,5.314,0,0,0,1.374-4.663h6.2a5.314,5.314,0,0,0,1.374,4.664Z" transform="translate(-63.704 -135.437)" fill="#0d285a"/><path d="M41.778,59.419a.6.6,0,0,0,.6-.6V44.917a.453.453,0,0,1,.452-.453H80.147a.453.453,0,0,1,.453.453v.856a.6.6,0,1,0,1.193,0v-.856a1.646,1.646,0,0,0-1.646-1.646H42.827a1.646,1.646,0,0,0-1.645,1.646V58.822a.6.6,0,0,0,.6.6Z" transform="translate(-34.579 -43.271)" fill="#0d285a"/><path d="M26.226,116.538H15.172A1.674,1.674,0,0,0,13.5,118.21v19.6a1.674,1.674,0,0,0,1.672,1.672H26.226a1.674,1.674,0,0,0,1.672-1.672v-19.6A1.674,1.674,0,0,0,26.226,116.538Zm.479,21.27a.48.48,0,0,1-.479.479H15.172a.48.48,0,0,1-.479-.479v-19.6a.48.48,0,0,1,.479-.479H26.226a.48.48,0,0,1,.479.479Z" transform="translate(-13.5 -99.063)" fill="#0d285a"/><path d="M148.141,61.824H122.453a1.674,1.674,0,0,0-1.672,1.672V83.269a1.674,1.674,0,0,0,1.672,1.672h25.688a1.674,1.674,0,0,0,1.672-1.672V63.5A1.674,1.674,0,0,0,148.141,61.824Zm.479,21.444a.48.48,0,0,1-.479.479H122.453a.48.48,0,0,1-.479-.479V63.5a.48.48,0,0,1,.479-.479h25.688a.48.48,0,0,1,.479.479Z" transform="translate(-95.193 -57.399)" fill="#0d285a"/><path d="M38.5,150.851,37.253,152.1l-.547-.547a.6.6,0,1,0-.843.843l.968.968a.6.6,0,0,0,.843,0l1.667-1.667a.6.6,0,1,0-.843-.843Z" transform="translate(-30.396 -125.058)" fill="#0d285a"/><path d="M175.067,95.281l-2.056,2.057-1.018-1.018a.6.6,0,1,0-.843.843l1.44,1.44a.6.6,0,0,0,.843,0l2.478-2.478a.6.6,0,1,0-.843-.843Z" transform="translate(-133.414 -82.743)" fill="#0d285a"/></g></g></svg>