<svg xmlns="http://www.w3.org/2000/svg" width="50.28" height="38.983" viewBox="0 0 50.28 38.983"><g transform="translate(-21.5 -47)" opacity="0.4"><path d="M96.911,153.491a2.246,2.246,0,1,1,2.246-2.246A2.246,2.246,0,0,1,96.911,153.491Zm0-3.289a1.043,1.043,0,1,0,1.043,1.043A1.043,1.043,0,0,0,96.911,150.2Z" transform="translate(-55.559 -77.454)" fill="#600dff"/><path d="M182.911,185.085a2.246,2.246,0,1,1,2.246-2.246A2.246,2.246,0,0,1,182.911,185.085Zm0-3.289a1.043,1.043,0,1,0,1.043,1.043,1.043,1.043,0,0,0-1.043-1.043Z" transform="translate(-120.864 -101.446)" fill="#600dff"/><path d="M179.305,117.866h-8.2a.6.6,0,0,1-.6-.6v-8.206a.6.6,0,0,1,.6-.6h8.206a.6.6,0,0,1,.6.6v8.206a.6.6,0,0,1-.6.6Zm-7.6-1.2h7v-7h-7Z" transform="translate(-113.145 -46.668)" fill="#600dff"/><g transform="translate(21.5 47)"><path d="M167.075,79H151.5a1.947,1.947,0,0,0-1.944,1.945v27.393a1.947,1.947,0,0,0,1.944,1.945h15.577a1.947,1.947,0,0,0,1.944-1.945V80.945A1.947,1.947,0,0,0,167.075,79Zm.741,29.338a.742.742,0,0,1-.741.741H151.5a.742.742,0,0,1-.741-.741V80.945a.742.742,0,0,1,.741-.741h15.577a.742.742,0,0,1,.741.741Z" transform="translate(-118.74 -71.3)" fill="#0d285a"/><path d="M50.51,77.32H23.3a.6.6,0,0,1-.6-.6V48.8a.6.6,0,0,1,.6-.6H59.4a.6.6,0,0,1,.6.6v3.79a.6.6,0,0,0,1.2,0V48.8A1.807,1.807,0,0,0,59.4,47H23.3a1.807,1.807,0,0,0-1.8,1.8V76.718a1.807,1.807,0,0,0,1.8,1.8h27.2a.6.6,0,1,0,0-1.2Z" transform="translate(-21.5 -47)" fill="#0d285a"/><path d="M183.732,121.874l-1.941,1.941-.949-.949a.6.6,0,1,0-.851.851l1.375,1.374a.6.6,0,0,0,.851,0l2.366-2.366a.6.6,0,1,0-.851-.851Z" transform="translate(-141.719 -103.723)" fill="#0d285a"/><path d="M86.2,77.977V76.366a1.312,1.312,0,0,0-.983-1.27l-1.393-.359.732-1.24a1.312,1.312,0,0,0-.2-1.593l-1.14-1.138a1.313,1.313,0,0,0-1.594-.2l-1.239.731L80.023,69.9a1.312,1.312,0,0,0-1.27-.983H77.141a1.312,1.312,0,0,0-1.269.983l-.359,1.393-1.24-.732a1.312,1.312,0,0,0-1.593.2L71.54,71.9a1.313,1.313,0,0,0-.2,1.594l.731,1.239-1.394.361a1.312,1.312,0,0,0-.983,1.27v1.611a1.312,1.312,0,0,0,.984,1.27l1.393.359-.732,1.24a1.312,1.312,0,0,0,.2,1.593l1.139,1.139a1.312,1.312,0,0,0,1.594.2l1.239-.731.359,1.394a1.312,1.312,0,0,0,1.27.983h1.612a1.313,1.313,0,0,0,1.27-.984l.359-1.393,1.24.732a1.312,1.312,0,0,0,1.593-.2l1.139-1.139a1.313,1.313,0,0,0,.2-1.594l-.731-1.239,1.394-.359A1.312,1.312,0,0,0,86.2,77.977Zm-1.2,0a.109.109,0,0,1-.081.105l-2.168.559a.6.6,0,0,0-.368.888l1.137,1.927a.109.109,0,0,1-.017.132l-1.14,1.139a.109.109,0,0,1-.131.017l-1.928-1.138a.6.6,0,0,0-.888.368l-.558,2.166a.109.109,0,0,1-.105.082H77.141a.109.109,0,0,1-.105-.081l-.559-2.168a.6.6,0,0,0-.888-.368l-1.927,1.137a.109.109,0,0,1-.132-.017l-1.138-1.138a.109.109,0,0,1-.017-.132l1.138-1.928a.6.6,0,0,0-.368-.888l-2.167-.559a.109.109,0,0,1-.082-.105V76.366a.109.109,0,0,1,.081-.105l2.168-.559a.6.6,0,0,0,.368-.888l-1.137-1.927a.109.109,0,0,1,.017-.132l1.14-1.139a.109.109,0,0,1,.131-.017l1.927,1.138a.6.6,0,0,0,.888-.368l.558-2.167a.109.109,0,0,1,.105-.082h1.612a.109.109,0,0,1,.105.081l.559,2.168a.6.6,0,0,0,.888.368L82.233,71.6a.108.108,0,0,1,.132.017L83.5,72.754a.109.109,0,0,1,.017.132l-1.138,1.928a.6.6,0,0,0,.368.888l2.168.559a.109.109,0,0,1,.081.105Z" transform="translate(-58.095 -63.642)" fill="#0d285a"/><path d="M94.308,90.46a3.071,3.071,0,1,0,3.071,3.071A3.071,3.071,0,0,0,94.308,90.46Zm0,4.939a1.868,1.868,0,1,1,1.868-1.868A1.868,1.868,0,0,1,94.308,95.4Z" transform="translate(-74.456 -80.002)" fill="#0d285a"/></g><path d="M69.594,59.953H39.435a.6.6,0,1,1,0-1.2h30.16a.6.6,0,1,1,0,1.2Z" transform="translate(-13.162 -8.923)" fill="#ebe7f2"/><path d="M175.157,92.2H163.065a.6.6,0,0,1,0-1.2h12.092a.6.6,0,0,1,0,1.2Z" transform="translate(-107.042 -33.412)" fill="#ebe7f2"/></g></svg>