<svg xmlns="http://www.w3.org/2000/svg" xmlns:xlink="http://www.w3.org/1999/xlink" width="71" height="70.576" viewBox="0 0 71 70.576"><defs><linearGradient id="a" x1="0.113" x2="1" y2="1.074" gradientUnits="objectBoundingBox"><stop offset="0" stop-color="#ed4e87"/><stop offset="1" stop-color="#522cf5"/></linearGradient></defs><path d="M32.365,70.576h0A35.7,35.7,0,0,1,14.4,10.441,35.511,35.511,0,0,1,75,35.647a35.659,35.659,0,0,1-23.069,33.4l-2.351-4.5c-.565-.926-5.529-9.148-5.836-12.79,0-.012-.108-1.29-.173-3.014-.048-1.3-.092-2.62-.05-3.327a7.535,7.535,0,0,1,1.529-3.869A9.756,9.756,0,0,1,48.3,38.694a7.179,7.179,0,0,1,3.531-.815c.275,0,.54.008.8.016h.013c.262.008.51.016.757.016A4.05,4.05,0,0,0,56.385,36.9c1.275-1.14,2.207-3.284,1.561-4.658-.266-.567-.693-.778-1.34-1.1a10.128,10.128,0,0,1-2.09-1.3,7.488,7.488,0,0,1-1.474-1.572,11.558,11.558,0,0,0-.988-1.192,13.82,13.82,0,0,0-5.088-3.236A16.82,16.82,0,0,0,40.584,22.6a17.14,17.14,0,0,0-1.757.09c-2.258.234-4.593.477-6.734,2.3a10.616,10.616,0,0,0-3.332,6.285c-.493,2.467-.124,4.161.611,7.536.107.491.221,1.016.342,1.583.01.049,1.042,4.946,1.832,10.183s.8,9,.828,15.858c.006,1.572.009,2.875-.008,4.142ZM46.342,32.558a1.8,1.8,0,1,1,2.048-1.788A1.933,1.933,0,0,1,46.342,32.558Z" transform="translate(-4)" fill="url(#a)"/></svg>