<svg xmlns="http://www.w3.org/2000/svg" width="42.547" height="38.83" viewBox="0 0 42.547 38.83"><g opacity="0.4"><g transform="translate(3.533 19.708)"><path d="M125.957,146.039a.456.456,0,0,1-.457-.457v-2.128a.457.457,0,0,1,.913,0v2.128A.456.456,0,0,1,125.957,146.039Z" transform="translate(-108.217 -140.716)" fill="#600dff"/><path d="M167,136.527a.456.456,0,0,1-.358-.173l-4.048-5.113a.457.457,0,1,1,.716-.567l4.048,5.113a.457.457,0,0,1-.358.74Z" transform="translate(-138.459 -130.501)" fill="#600dff"/><path d="M66.957,136.527a.457.457,0,0,1-.359-.739l4.018-5.113a.457.457,0,1,1,.718.564l-4.018,5.113A.456.456,0,0,1,66.957,136.527Z" transform="translate(-59.992 -130.501)" fill="#600dff"/><path d="M36.278,209.64a.456.456,0,0,1-.457-.457v-2.731a.832.832,0,0,0-.831-.831H32.6a.832.832,0,0,0-.831.831v2.731a.457.457,0,1,1-.913,0v-2.731a1.746,1.746,0,0,1,1.744-1.744H34.99a1.746,1.746,0,0,1,1.744,1.744v2.731A.456.456,0,0,1,36.278,209.64Z" transform="translate(-30.858 -191.156)" fill="#600dff"/><path d="M36.733,180.791a2.247,2.247,0,1,1,2.247-2.247A2.249,2.249,0,0,1,36.733,180.791Zm0-3.58a1.334,1.334,0,1,0,1.333,1.333A1.335,1.335,0,0,0,36.733,177.211Z" transform="translate(-33.823 -167.935)" fill="#600dff"/><path d="M117.489,209.64a.456.456,0,0,1-.457-.457v-2.731a.832.832,0,0,0-.831-.831h-2.388a.832.832,0,0,0-.831.831v2.731a.457.457,0,1,1-.913,0v-2.731a1.746,1.746,0,0,1,1.744-1.744H116.2a1.746,1.746,0,0,1,1.745,1.744v2.731A.456.456,0,0,1,117.489,209.64Z" transform="translate(-97.238 -191.156)" fill="#600dff"/><path d="M117.945,180.791a2.247,2.247,0,1,1,2.247-2.247A2.249,2.249,0,0,1,117.945,180.791Zm0-3.58a1.334,1.334,0,1,0,1.334,1.333A1.335,1.335,0,0,0,117.945,177.211Z" transform="translate(-100.205 -167.935)" fill="#600dff"/><path d="M198.7,209.64a.456.456,0,0,1-.457-.457v-2.731a.832.832,0,0,0-.831-.831h-2.388a.832.832,0,0,0-.831.831v2.731a.457.457,0,1,1-.913,0v-2.731a1.746,1.746,0,0,1,1.745-1.744h2.388a1.746,1.746,0,0,1,1.745,1.744v2.731A.456.456,0,0,1,198.7,209.64Z" transform="translate(-163.619 -191.156)" fill="#600dff"/><path d="M199.156,180.791a2.247,2.247,0,1,1,2.247-2.247A2.249,2.249,0,0,1,199.156,180.791Zm0-3.58a1.334,1.334,0,1,0,1.334,1.333A1.335,1.335,0,0,0,199.156,177.211Z" transform="translate(-166.585 -167.935)" fill="#600dff"/></g><path d="M17.952,164.649a6.443,6.443,0,1,0,6.443,6.443A6.45,6.45,0,0,0,17.952,164.649Zm0,11.973a5.53,5.53,0,1,1,5.53-5.53A5.536,5.536,0,0,1,17.952,176.622Z" transform="translate(-11.509 -138.704)" fill="#0d285a"/><path d="M99.163,164.649a6.443,6.443,0,1,0,6.443,6.443A6.45,6.45,0,0,0,99.163,164.649Zm0,11.973a5.53,5.53,0,1,1,5.53-5.53A5.536,5.536,0,0,1,99.163,176.622Z" transform="translate(-77.889 -138.704)" fill="#0d285a"/><path d="M180.374,164.649a6.443,6.443,0,1,0,6.443,6.443A6.45,6.45,0,0,0,180.374,164.649Zm0,11.973a5.53,5.53,0,1,1,5.53-5.53A5.536,5.536,0,0,1,180.374,176.622Z" transform="translate(-144.27 -138.704)" fill="#0d285a"/><path d="M85.886,39.517,84.56,37.27l2.527-.651a1.478,1.478,0,0,0,1.107-1.43V32.875a1.477,1.477,0,0,0-1.107-1.43h0l-2.526-.651,1.326-2.247a1.477,1.477,0,0,0-.228-1.794l-1.636-1.636a1.478,1.478,0,0,0-1.794-.228L79.98,26.214l-.651-2.527A1.477,1.477,0,0,0,77.9,22.58H75.585a1.477,1.477,0,0,0-1.43,1.107L73.5,26.214l-2.247-1.326a1.477,1.477,0,0,0-1.794.228l-1.637,1.636a1.477,1.477,0,0,0-.228,1.794l1.326,2.247-2.527.651a1.477,1.477,0,0,0-1.107,1.43v2.314a1.477,1.477,0,0,0,1.108,1.43l2.526.651L67.6,39.517a1.477,1.477,0,0,0,.228,1.794l1.636,1.636a1.478,1.478,0,0,0,1.794.228L73.5,41.85l.651,2.527a1.477,1.477,0,0,0,1.43,1.107H77.9a1.477,1.477,0,0,0,1.43-1.107l.651-2.526,2.247,1.326a1.477,1.477,0,0,0,1.794-.228l1.636-1.636A1.477,1.477,0,0,0,85.886,39.517Zm-.874,1.149L83.376,42.3a.563.563,0,0,1-.685.087l-2.769-1.635a.457.457,0,0,0-.674.279l-.8,3.114a.564.564,0,0,1-.546.423H75.585a.564.564,0,0,1-.546-.422l-.8-3.114a.457.457,0,0,0-.674-.279l-2.769,1.634a.564.564,0,0,1-.685-.087l-1.636-1.636a.564.564,0,0,1-.087-.685l1.635-2.769a.457.457,0,0,0-.279-.674l-3.113-.8a.564.564,0,0,1-.423-.546V32.875a.564.564,0,0,1,.422-.546l3.114-.8a.457.457,0,0,0,.279-.674l-1.634-2.769a.564.564,0,0,1,.087-.685l1.636-1.636a.564.564,0,0,1,.685-.087l2.769,1.635a.457.457,0,0,0,.674-.279l.8-3.114a.564.564,0,0,1,.546-.422H77.9a.564.564,0,0,1,.546.422l.8,3.114a.457.457,0,0,0,.674.279l2.769-1.634a.564.564,0,0,1,.685.087L85.013,27.4a.564.564,0,0,1,.087.685l-1.634,2.769a.457.457,0,0,0,.279.674l3.114.8a.564.564,0,0,1,.422.546v2.314a.564.564,0,0,1-.422.546l-3.114.8a.457.457,0,0,0-.279.674L85.1,39.981a.564.564,0,0,1-.088.685Z" transform="translate(-55.469 -22.58)" fill="#0d285a"/><path d="M110.078,71.37a4,4,0,1,1,4-4A4.009,4.009,0,0,1,110.078,71.37Zm0-7.1a3.091,3.091,0,1,0,3.091,3.091A3.095,3.095,0,0,0,110.078,64.275Z" transform="translate(-88.805 -55.914)" fill="#600dff"/></g></svg>