<svg xmlns="http://www.w3.org/2000/svg" width="31.633" height="42.426" viewBox="0 0 31.633 42.426"><g transform="translate(-49.504 -28.5)" opacity="0.4"><g transform="translate(49.504 39.292)"><path d="M82.268,90.024a3.214,3.214,0,0,0,0-4.546l-.95-.951a3.219,3.219,0,0,0-4.546,0l-21.231,21.23a3.03,3.03,0,0,0-.738,1.208l-1.673,5.2a1.2,1.2,0,0,0,1.506,1.506l5.2-1.673a3.029,3.029,0,0,0,1.208-.738Zm-4.757-4.756a2.17,2.17,0,0,1,3.065,0l.951.95a2.167,2.167,0,0,1,0,3.065l-1.479,1.479-4.016-4.016ZM60.667,110.145l-4.016-4.016L75.292,87.486,79.308,91.5Zm-6.354,2.524a.149.149,0,0,1-.188-.189l.419-1.3,1.068,1.068Zm5.2-1.673-2.776.894-1.828-1.828.894-2.776a1.967,1.967,0,0,1,.164-.366l3.912,3.911a1.96,1.96,0,0,1-.366.164Z" transform="translate(-52.324 -82.838)" fill="#0d285a"/><path d="M58.588,95.367a.524.524,0,0,0,.37-.894l-8.2-8.2a.724.724,0,0,1,0-1.022l3.984-3.984a.724.724,0,0,1,1.022,0L58,83.5l-1.119,1.12a.524.524,0,0,0,.741.741l1.12-1.12,3.111,3.111-1.12,1.12a.524.524,0,1,0,.741.741l1.12-1.12,1.374,1.375a.524.524,0,1,0,.741-.741l-8.2-8.2a1.772,1.772,0,0,0-2.5,0l-3.984,3.984a1.772,1.772,0,0,0,0,2.5l8.2,8.2A.521.521,0,0,0,58.588,95.367Z" transform="translate(-49.504 -80.013)" fill="#0d285a"/><path d="M142.046,166.069l-8.2-8.2a.524.524,0,1,0-.741.741l1.375,1.374-1.12,1.12a.524.524,0,1,0,.741.741l1.12-1.12,3.111,3.111-1.12,1.12a.524.524,0,1,0,.741.741l1.12-1.12,2.229,2.229a.724.724,0,0,1,0,1.022l-3.984,3.984a.74.74,0,0,1-1.022,0l-8.2-8.2a.524.524,0,0,0-.741.741l8.2,8.2a1.77,1.77,0,0,0,2.5,0l3.984-3.984A1.772,1.772,0,0,0,142.046,166.069Z" transform="translate(-110.931 -141.44)" fill="#0d285a"/></g><path d="M101.582,42.875h-1.4a1.142,1.142,0,0,1-1.106-.856l-.313-1.214-1.079.637a1.143,1.143,0,0,1-1.388-.176l-.991-.992a1.142,1.142,0,0,1-.177-1.387l.637-1.079-1.213-.312a1.143,1.143,0,0,1-.856-1.106v-1.4a1.142,1.142,0,0,1,.856-1.106l1.214-.313-.637-1.079A1.142,1.142,0,0,1,95.3,31.1l.992-.992a1.142,1.142,0,0,1,1.387-.177l1.079.637.313-1.213a1.142,1.142,0,0,1,1.106-.856h1.4a1.142,1.142,0,0,1,1.106.856L103,30.569l1.079-.637a1.142,1.142,0,0,1,1.388.176l.992.992a1.142,1.142,0,0,1,.177,1.388L106,33.567l1.213.313a1.142,1.142,0,0,1,.856,1.106v1.4a1.142,1.142,0,0,1-.856,1.106L106,37.807l.637,1.079a1.142,1.142,0,0,1-.176,1.388l-.992.992a1.142,1.142,0,0,1-1.387.177L103,40.8l-.313,1.213A1.142,1.142,0,0,1,101.582,42.875Zm-2.488-3.4a.524.524,0,0,1,.507.393l.486,1.887a.1.1,0,0,0,.092.071h1.4a.1.1,0,0,0,.092-.071l.486-1.886a.524.524,0,0,1,.773-.321l1.679.991a.1.1,0,0,0,.115-.015l.992-.992a.1.1,0,0,0,.015-.115l-.99-1.678a.524.524,0,0,1,.32-.773l1.887-.486a.1.1,0,0,0,.07-.092v-1.4a.1.1,0,0,0-.071-.092l-1.888-.486a.524.524,0,0,1-.32-.773l.991-1.678a.1.1,0,0,0-.015-.115l-.992-.992a.1.1,0,0,0-.115-.015l-1.678.991a.524.524,0,0,1-.773-.321l-.486-1.887a.1.1,0,0,0-.092-.07h-1.4a.094.094,0,0,0-.092.071L99.6,31.506a.524.524,0,0,1-.773.32l-1.678-.991a.1.1,0,0,0-.115.015l-.991.991a.1.1,0,0,0-.015.115l.99,1.678a.524.524,0,0,1-.32.773l-1.887.486a.1.1,0,0,0-.07.092v1.4a.1.1,0,0,0,.071.092l1.887.486a.524.524,0,0,1,.32.773l-.991,1.679a.1.1,0,0,0,.015.115l.992.992a.1.1,0,0,0,.115.015l1.677-.99a.524.524,0,0,1,.267-.073Z" transform="translate(-34.931 0)" fill="#600dff"/><path d="M117.912,55.392a2.674,2.674,0,1,1,2.674-2.674A2.674,2.674,0,0,1,117.912,55.392Zm0-4.3a1.626,1.626,0,1,0,1.626,1.626,1.626,1.626,0,0,0-1.626-1.626Z" transform="translate(-51.962 -17.031)" fill="#600dff"/></g></svg>