<svg xmlns="http://www.w3.org/2000/svg" width="34.116" height="38.983" viewBox="0 0 34.116 38.983"><g opacity="0.4"><path d="M47.854,163.412h-1.5a1.183,1.183,0,0,1-1.145-.886l-.348-1.349-1.2.709a1.183,1.183,0,0,1-1.437-.183l-1.061-1.061a1.183,1.183,0,0,1-.183-1.436l.709-1.2-1.348-.348a1.183,1.183,0,0,1-.887-1.145v-1.5a1.183,1.183,0,0,1,.886-1.145l1.348-.347-.707-1.2a1.183,1.183,0,0,1,.183-1.437l1.061-1.061a1.182,1.182,0,0,1,1.436-.183l1.2.709L45.209,149a1.183,1.183,0,0,1,1.145-.887h1.5A1.183,1.183,0,0,1,49,149l.348,1.349,1.2-.707a1.183,1.183,0,0,1,1.437.183l1.061,1.061a1.183,1.183,0,0,1,.183,1.437l-.708,1.2,1.348.347h0a1.183,1.183,0,0,1,.886,1.145v1.5a1.183,1.183,0,0,1-.887,1.145l-1.348.347.707,1.2a1.183,1.183,0,0,1-.183,1.437L51.983,161.7a1.183,1.183,0,0,1-1.437.183l-1.2-.709L49,162.525A1.183,1.183,0,0,1,47.854,163.412Zm-2.661-3.557a.521.521,0,0,1,.5.391l.52,2.019a.14.14,0,0,0,.136.1h1.5a.141.141,0,0,0,.136-.105l.521-2.018a.521.521,0,0,1,.77-.319l1.8,1.06a.141.141,0,0,0,.17-.022l1.061-1.061a.14.14,0,0,0,.021-.171l-1.059-1.795a.521.521,0,0,1,.319-.769l2.019-.521a.14.14,0,0,0,.1-.136v-1.5a.141.141,0,0,0-.105-.136l-2.018-.521a.521.521,0,0,1-.319-.77l1.06-1.8a.14.14,0,0,0-.022-.17l-1.061-1.061a.141.141,0,0,0-.171-.021L49.28,151.6a.521.521,0,0,1-.769-.316l-.521-2.019a.14.14,0,0,0-.136-.1h-1.5a.141.141,0,0,0-.136.1l-.52,2.019a.521.521,0,0,1-.77.319l-1.794-1.06a.14.14,0,0,0-.17.022L41.9,151.621a.14.14,0,0,0-.021.171l1.059,1.8a.521.521,0,0,1-.319.77l-2.019.521a.141.141,0,0,0-.1.136v1.5a.141.141,0,0,0,.1.136l2.019.52a.521.521,0,0,1,.319.77l-1.06,1.8a.141.141,0,0,0,.022.17l1.061,1.061a.141.141,0,0,0,.171.021l1.795-1.06A.521.521,0,0,1,45.193,159.855Z" transform="translate(-39.455 -124.43)" fill="#600dff"/><path d="M65.438,176.913a2.821,2.821,0,1,1,2.821-2.821A2.821,2.821,0,0,1,65.438,176.913Zm0-4.6a1.779,1.779,0,1,0,1.779,1.779,1.779,1.779,0,0,0-1.779-1.779Z" transform="translate(-57.789 -142.76)" fill="#600dff"/><path d="M82,64.5V43.475a4.64,4.64,0,1,0-3.283,0V54.218l-18.543-4.87V43.475a4.64,4.64,0,1,0-3.283,0v8a.521.521,0,0,0,.389.5l21.438,5.631V64.5A4.64,4.64,0,1,0,82,64.5ZM76.761,39.136a3.6,3.6,0,1,1,3.6,3.6,3.6,3.6,0,0,1-3.6-3.6Zm-21.827,0a3.6,3.6,0,1,1,3.6,3.6,3.6,3.6,0,0,1-3.6-3.6ZM79.37,56.707,57.932,51.076V43.736a4.509,4.509,0,0,0,1.2,0V49.75a.521.521,0,0,0,.389.5L79.105,55.4a.521.521,0,0,0,.654-.5V43.736a4.509,4.509,0,0,0,1.2,0v20.5a4.509,4.509,0,0,0-1.2,0V57.211a.521.521,0,0,0-.389-.5Zm.988,15.729a3.6,3.6,0,1,1,3.6-3.6,3.6,3.6,0,0,1-3.6,3.6Z" transform="translate(-50.882 -34.496)" fill="#0d285a"/></g></svg>